<svg width="32" height="22" viewBox="0 0 32 22" fill="none" xmlns="http://www.w3.org/2000/svg">
<path d="M12.0581 1.83502C12.2459 1.4802 12.7541 1.4802 12.9419 1.83502L16.8747 9.26612C17.051 9.59911 16.8096 10 16.4328 10H8.56719C8.19043 10 7.94902 9.59911 8.12526 9.26612L12.0581 1.83502Z" fill="#4CAF4F" stroke="#4CAF4F"/>
<path d="M26.0581 1.83502C26.2459 1.4802 26.7541 1.4802 26.9419 1.83502L30.8747 9.26612C31.051 9.59911 30.8096 10 30.4328 10H22.5672C22.1904 10 21.949 9.59911 22.1253 9.26612L26.0581 1.83502Z" stroke="#4CAF4F"/>
<path d="M5.05807 9.16498C5.24586 9.5198 5.75414 9.5198 5.94193 9.16498L9.87474 1.73388C10.051 1.40089 9.80957 1 9.43281 1H1.56719C1.19043 1 0.949024 1.40089 1.12526 1.73388L5.05807 9.16498Z" fill="#4CAF4F" stroke="#4CAF4F"/>
<path d="M12.0581 20.165C12.2459 20.5198 12.7541 20.5198 12.9419 20.165L16.8747 12.7339C17.051 12.4009 16.8096 12 16.4328 12H8.56719C8.19043 12 7.94902 12.4009 8.12526 12.7339L12.0581 20.165Z" stroke="#4CAF4F"/>
<path d="M26.0581 20.165C26.2459 20.5198 26.7541 20.5198 26.9419 20.165L30.8747 12.7339C31.051 12.4009 30.8096 12 30.4328 12H22.5672C22.1904 12 21.949 12.4009 22.1253 12.7339L26.0581 20.165Z" fill="#4CAF4F" stroke="#4CAF4F"/>
<path d="M19.0581 12.835C19.2459 12.4802 19.7541 12.4802 19.9419 12.835L23.8747 20.2661C24.051 20.5991 23.8096 21 23.4328 21H15.5672C15.1904 21 14.949 20.5991 15.1253 20.2661L19.0581 12.835Z" fill="#4CAF4F" stroke="#4CAF4F"/>
</svg>
